<svg version="1.1" viewBox="0.0 0.0 960.0 540.0" fill="none" stroke="none" stroke-linecap="square" stroke-miterlimit="10" xmlns:xlink="http://www.w3.org/1999/xlink" xmlns="http://www.w3.org/2000/svg"><clipPath id="g3ea20557ad_0_0.0"><path d="m0 0l960.0 0l0 540.0l-960.0 0l0 -540.0z" clip-rule="nonzero"/></clipPath><g clip-path="url(#g3ea20557ad_0_0.0)"><path fill="#000000" fill-opacity="0.0" d="m0 0l960.0 0l0 540.0l-960.0 0z" fill-rule="evenodd"/><path fill="#d55b43" d="m256.77008 105.8399l487.76276 0c0.001159668 0 0.002319336 4.7302246E-4 0.0031738281 0.0013198853c8.544922E-4 8.392334E-4 0.0012817383 0.001991272 0.0012817383 0.0031814575l-0.0044555664 264.0102c0 29.162964 -23.641296 52.8042 -52.80426 52.8042l-487.7627 0l0 0c-0.0024871826 0 -0.004501343 -0.0020141602 -0.004501343 -0.004486084l0.004501343 -264.0102l0 0c0 -29.162964 23.64125 -52.804207 52.8042 -52.804207z" fill-rule="evenodd"/><path fill="#ffffff" d="m281.3867 137.5853l429.0175 0c0.0010375977 0 0.0020751953 4.119873E-4 0.0028076172 0.001159668c7.324219E-4 7.324219E-4 0.001159668 0.001739502 0.001159668 0.0027770996l-0.003967285 212.38367c0 23.460266 -19.01825 42.478546 -42.478516 42.478546l-429.01752 0l0 0c-0.0021820068 0 -0.0039367676 -0.0017700195 -0.0039367676 -0.0039367676l0.0039367676 -212.38367l0 0c0 -23.46025 19.01828 -42.478546 42.478546 -42.478546z" fill-rule="evenodd"/><path fill="#d55b43" d="m321.39633 422.65878l17.724396 -70.897644l271.07086 0l17.724426 70.897644z" fill-rule="evenodd"/><path fill="#d55b43" d="m311.48587 220.27794l0 0c0 -9.2339325 7.485565 -16.719498 16.719482 -16.719498l287.31693 0c4.434265 0 8.686951 1.7615051 11.822449 4.8970184c3.135559 3.1355133 4.8970337 7.3881836 4.8970337 11.822479l0 66.87596c0 9.233917 -7.4855347 16.719513 -16.719482 16.719513l-287.31693 0c-9.233917 0 -16.719482 -7.4855957 -16.719482 -16.719513z" fill-rule="evenodd"/><path fill="#ffffff" d="m322.24942 264.84875l12.775177 -16.063324l-4.559326 -20.030762l20.489716 3.0517578E-5l12.774963 -16.063416l12.774933 16.063416l20.489716 -3.0517578E-5l-4.5592957 20.030762l12.775177 16.063324l-18.460724 8.91452l-4.5594482 20.030792l-18.460358 -8.914612l-18.460388 8.914612l-4.5594482 -20.030792z" fill-rule="evenodd"/><path fill="#93c47d" d="m329.2416 262.78543l10.709015 -13.468216l-3.82193 -16.794739l17.175903 3.0517578E-5l10.708832 -13.4683075l10.708832 13.4683075l17.175903 -3.0517578E-5l-3.82193 16.794739l10.709045 13.468216l-15.475067 7.474365l-3.8220215 16.79477l-15.474762 -7.474457l-15.474762 7.474457l-3.8220215 -16.79477z" fill-rule="evenodd"/><path fill="#ffffff" d="m538.2494 264.84875l12.7752075 -16.063324l-4.559326 -20.030762l20.489746 3.0517578E-5l12.774902 -16.063416l12.774963 16.063416l20.489746 -3.0517578E-5l-4.559326 20.030762l12.7751465 16.063324l-18.460693 8.91452l-4.5594482 20.030792l-18.460388 -8.914612l-18.460327 8.914612l-4.5594482 -20.030792z" fill-rule="evenodd"/><path fill="#8e7cc3" d="m545.2416 262.78543l10.709045 -13.468216l-3.8218994 -16.794739l17.175842 3.0517578E-5l10.708862 -13.4683075l10.708862 13.4683075l17.175903 -3.0517578E-5l-3.8219604 16.794739l10.709045 13.468216l-15.475037 7.474365l-3.8220825 16.79477l-15.474731 -7.474457l-15.474731 7.474457l-3.8220825 -16.79477z" fill-rule="evenodd"/></g></svg>