<svg version="1.1" viewBox="0.0 0.0 960.0 540.0" fill="none" stroke="none" stroke-linecap="square" stroke-miterlimit="10" xmlns:xlink="http://www.w3.org/1999/xlink" xmlns="http://www.w3.org/2000/svg"><clipPath id="g39fc44f3b4_1_25.0"><path d="m0 0l960.0 0l0 540.0l-960.0 0l0 -540.0z" clip-rule="nonzero"/></clipPath><g clip-path="url(#g39fc44f3b4_1_25.0)"><path fill="#000000" fill-opacity="0.0" d="m0 0l960.0 0l0 540.0l-960.0 0z" fill-rule="evenodd"/><path fill="#c27ba0" d="m268.27008 117.3399l487.76276 0c0.001159668 0 0.002319336 4.7302246E-4 0.0031738281 0.0013198853c8.544922E-4 8.392334E-4 0.0012817383 0.001991272 0.0012817383 0.0031814575l-0.0044555664 264.0102c0 29.162964 -23.641296 52.8042 -52.80426 52.8042l-487.7627 0l0 0c-0.0024871826 0 -0.004501343 -0.0020141602 -0.004501343 -0.004486084l0.004501343 -264.0102l0 0c0 -29.162964 23.64125 -52.804207 52.8042 -52.804207z" fill-rule="evenodd"/><path fill="#93c47d" d="m264.27008 113.3399l487.76276 0c0.001159668 0 0.002319336 4.7302246E-4 0.0031738281 0.0013198853c8.544922E-4 8.392334E-4 0.0012817383 0.001991272 0.0012817383 0.0031814575l-0.0044555664 264.0102c0 29.162964 -23.641296 52.8042 -52.80426 52.8042l-487.7627 0l0 0c-0.0024871826 0 -0.004501343 -0.0020141602 -0.004501343 -0.004486084l0.004501343 -264.0102l0 0c0 -29.162964 23.64125 -52.804207 52.8042 -52.804207z" fill-rule="evenodd"/><path fill="#6d9eeb" d="m260.77008 109.8399l487.76276 0c0.001159668 0 0.002319336 4.7302246E-4 0.0031738281 0.0013198853c8.544922E-4 8.392334E-4 0.0012817383 0.001991272 0.0012817383 0.0031814575l-0.0044555664 264.0102c0 29.162964 -23.641296 52.8042 -52.80426 52.8042l-487.7627 0l0 0c-0.0024871826 0 -0.004501343 -0.0020141602 -0.004501343 -0.004486084l0.004501343 -264.0102l0 0c0 -29.162964 23.64125 -52.804207 52.8042 -52.804207z" fill-rule="evenodd"/><path fill="#d55b43" d="m256.77008 105.8399l487.76276 0c0.001159668 0 0.002319336 4.7302246E-4 0.0031738281 0.0013198853c8.544922E-4 8.392334E-4 0.0012817383 0.001991272 0.0012817383 0.0031814575l-0.0044555664 264.0102c0 29.162964 -23.641296 52.8042 -52.80426 52.8042l-487.7627 0l0 0c-0.0024871826 0 -0.004501343 -0.0020141602 -0.004501343 -0.004486084l0.004501343 -264.0102l0 0c0 -29.162964 23.64125 -52.804207 52.8042 -52.804207z" fill-rule="evenodd"/><path fill="#ffffff" d="m281.3867 137.5853l429.0175 0c0.0010375977 0 0.0020751953 4.119873E-4 0.0028076172 0.001159668c7.324219E-4 7.324219E-4 0.001159668 0.001739502 0.001159668 0.0027770996l-0.003967285 212.38367c0 23.460266 -19.01825 42.478546 -42.478516 42.478546l-429.01752 0l0 0c-0.0021820068 0 -0.0039367676 -0.0017700195 -0.0039367676 -0.0039367676l0.0039367676 -212.38367l0 0c0 -23.46025 19.01828 -42.478546 42.478546 -42.478546z" fill-rule="evenodd"/><path fill="#c27ba0" d="m327.5223 422.65878l15.472443 -61.88974l275.57483 0l15.472412 61.88974z" fill-rule="evenodd"/><path fill="#93c47d" d="m325.5223 422.65353l16.283478 -65.13385l273.95276 0l16.283447 65.13385z" fill-rule="evenodd"/><path fill="#6d9eeb" d="m323.6483 423.4829l17.149628 -68.59842l272.22046 0l17.149597 68.59842z" fill-rule="evenodd"/><path fill="#d55b43" d="m321.39633 422.65878l17.724396 -70.897644l271.07086 0l17.724426 70.897644z" fill-rule="evenodd"/><path fill="#000000" fill-opacity="0.0" d="m243.65814 153.16864l471.49603 0l0 77.00787l-471.49603 0z" fill-rule="evenodd"/><path fill="#c27ba0" d="m327.7892 177.85301q1.65625 0.859375 1.65625 2.71875q0 1.125 -0.796875 2.1875q-0.859375 1.125 -2.1875 1.125q-0.90625 0 -1.8125 -0.484375q-2.609375 -1.234375 -5.65625 -1.234375q-3.734375 0 -6.515625 1.578125q-2.765625 1.578125 -4.265625 4.4375q-1.484375 2.84375 -1.484375 6.515625q0 6.296875 3.390625 9.5625q3.390625 3.25 8.875 3.25q3.25 0 5.65625 -1.234375q0.953125 -0.421875 1.703125 -0.421875q1.390625 0 2.34375 1.171875q0.8125 1.015625 0.8125 2.1875q0 0.84375 -0.4375 1.546875q-0.421875 0.6875 -1.21875 1.0625q-4.15625 2.078125 -8.859375 2.078125q-5.21875 0 -9.59375 -2.203125q-4.375 -2.21875 -6.984375 -6.53125q-2.609375 -4.328125 -2.609375 -10.46875q0 -5.4375 2.46875 -9.75q2.484375 -4.328125 6.859375 -6.75q4.375 -2.421875 9.859375 -2.421875q4.75 0 8.796875 2.078125zm51.52478 31.359375q0.265625 0.6875 0.265625 1.28125q0 1.375 -0.90625 2.265625q-0.90625 0.875 -2.078125 0.875q-0.96875 0 -1.75 -0.578125q-0.765625 -0.59375 -1.1875 -1.609375l-2.78125 -6.453125l-15.890625 0l-2.765625 6.515625q-0.375 1.0 -1.15625 1.5625q-0.765625 0.5625 -1.671875 0.5625q-1.390625 0 -2.109375 -0.734375q-0.71875 -0.75 -0.71875 -2.03125q0 -0.484375 0.15625 -1.015625l13.28125 -31.890625q0.4375 -1.0625 1.28125 -1.65625q0.859375 -0.59375 1.921875 -0.484375q0.953125 0 1.78125 0.5625q0.828125 0.5625 1.203125 1.578125l13.125 31.25zm-21.703125 -10.34375l10.65625 0l-5.375 -12.484375l-5.28125 12.484375zm53.43036 15.03125q-3.84375 0 -6.828125 -0.953125q-2.984375 -0.96875 -5.59375 -3.25q-1.4375 -1.28125 -1.4375 -2.828125q0 -1.234375 0.90625 -2.15625q0.90625 -0.9375 2.171875 -0.9375q1.015625 0 1.828125 0.640625q2.125 1.75 4.140625 2.5625q2.03125 0.796875 4.8125 0.796875q2.984375 0 5.140625 -1.328125q2.15625 -1.34375 2.15625 -3.3125q0 -2.40625 -2.140625 -3.765625q-2.125 -1.359375 -6.75 -2.046875q-11.6875 -1.71875 -11.6875 -10.890625q0 -3.359375 1.75 -5.828125q1.765625 -2.484375 4.796875 -3.78125q3.046875 -1.3125 6.78125 -1.3125q3.359375 0 6.3125 1.015625q2.96875 1.0 4.9375 2.65625q1.546875 1.234375 1.546875 2.828125q0 1.234375 -0.90625 2.171875q-0.90625 0.921875 -2.125 0.921875q-0.796875 0 -1.4375 -0.484375q-1.390625 -1.109375 -3.875 -2.046875q-2.46875 -0.9375 -4.453125 -0.9375q-3.359375 0 -5.203125 1.265625q-1.828125 1.25 -1.828125 3.265625q0 2.296875 1.890625 3.46875q1.890625 1.171875 5.953125 1.921875q4.578125 0.796875 7.328125 2.0625q2.75 1.25 4.125 3.40625q1.390625 2.15625 1.390625 5.734375q0 3.359375 -1.890625 5.890625q-1.890625 2.53125 -5.046875 3.890625q-3.140625 1.359375 -6.765625 1.359375zm46.768677 0q-3.84375 0 -6.828125 -0.953125q-2.984375 -0.96875 -5.59375 -3.25q-1.4375 -1.28125 -1.4375 -2.828125q0 -1.234375 0.90625 -2.15625q0.90625 -0.9375 2.171875 -0.9375q1.015625 0 1.828125 0.640625q2.125 1.75 4.140625 2.5625q2.03125 0.796875 4.8125 0.796875q2.984375 0 5.140625 -1.328125q2.15625 -1.34375 2.15625 -3.3125q0 -2.40625 -2.140625 -3.765625q-2.125 -1.359375 -6.75 -2.046875q-11.6875 -1.71875 -11.6875 -10.890625q0 -3.359375 1.75 -5.828125q1.765625 -2.484375 4.796875 -3.78125q3.046875 -1.3125 6.78125 -1.3125q3.359375 0 6.3125 1.015625q2.96875 1.0 4.9375 2.65625q1.546875 1.234375 1.546875 2.828125q0 1.234375 -0.90625 2.171875q-0.90625 0.921875 -2.125 0.921875q-0.796875 0 -1.4375 -0.484375q-1.390625 -1.109375 -3.875 -2.046875q-2.46875 -0.9375 -4.453125 -0.9375q-3.359375 0 -5.203125 1.265625q-1.828125 1.25 -1.828125 3.265625q0 2.296875 1.890625 3.46875q1.890625 1.171875 5.953125 1.921875q4.578125 0.796875 7.328125 2.0625q2.75 1.25 4.125 3.40625q1.390625 2.15625 1.390625 5.734375q0 3.359375 -1.890625 5.890625q-1.890625 2.53125 -5.046875 3.890625q-3.140625 1.359375 -6.765625 1.359375zm55.893707 -6.65625q1.375 0 2.3125 0.9375q0.9375 0.921875 0.9375 2.140625q0 1.34375 -0.9375 2.203125q-0.9375 0.84375 -2.3125 0.84375l-17.875 0q-1.390625 0 -2.328125 -0.921875q-0.921875 -0.9375 -0.921875 -2.328125l0 -30.828125q0 -1.390625 0.921875 -2.3125q0.9375 -0.9375 2.328125 -0.9375l17.875 0q1.375 0 2.3125 0.890625q0.9375 0.875 0.9375 2.25q0 1.34375 -0.90625 2.171875q-0.90625 0.8125 -2.34375 0.8125l-14.453125 0l0 9.078125l12.046875 0q1.390625 0 2.3125 0.875q0.9375 0.875 0.9375 2.265625q0 1.328125 -0.90625 2.15625q-0.90625 0.828125 -2.34375 0.828125l-12.046875 0l0 9.875l14.453125 0zm48.841736 -31.203125q1.4375 0 2.34375 0.859375q0.90625 0.84375 0.90625 2.234375q0 1.390625 -0.90625 2.21875q-0.90625 0.8125 -2.34375 0.8125l-8.375 0l0 27.953125q0 1.390625 -1.015625 2.328125q-1.015625 0.921875 -2.5 0.921875q-1.5 0 -2.46875 -0.921875q-0.953125 -0.9375 -0.953125 -2.328125l0 -27.953125l-8.359375 0q-1.453125 0 -2.359375 -0.84375q-0.90625 -0.859375 -0.90625 -2.25q0 -1.328125 0.9375 -2.171875q0.9375 -0.859375 2.328125 -0.859375l23.671875 0zm48.315186 0q1.4375 0 2.34375 0.859375q0.90625 0.84375 0.90625 2.234375q0 1.390625 -0.90625 2.21875q-0.90625 0.8125 -2.34375 0.8125l-8.375 0l0 27.953125q0 1.390625 -1.015625 2.328125q-1.015625 0.921875 -2.5 0.921875q-1.5 0 -2.46875 -0.921875q-0.953125 -0.9375 -0.953125 -2.328125l0 -27.953125l-8.359375 0q-1.453125 0 -2.359375 -0.84375q-0.90625 -0.859375 -0.90625 -2.25q0 -1.328125 0.9375 -2.171875q0.9375 -0.859375 2.328125 -0.859375l23.671875 0zm44.908936 31.203125q1.375 0 2.3125 0.9375q0.9375 0.921875 0.9375 2.140625q0 1.34375 -0.9375 2.203125q-0.9375 0.84375 -2.3125 0.84375l-17.875 0q-1.390625 0 -2.328125 -0.921875q-0.921875 -0.9375 -0.921875 -2.328125l0 -30.828125q0 -1.390625 0.921875 -2.3125q0.9375 -0.9375 2.328125 -0.9375l17.875 0q1.375 0 2.3125 0.890625q0.9375 0.875 0.9375 2.25q0 1.34375 -0.90625 2.171875q-0.90625 0.8125 -2.34375 0.8125l-14.453125 0l0 9.078125l12.046875 0q1.390625 0 2.3125 0.875q0.9375 0.875 0.9375 2.265625q0 1.328125 -0.90625 2.15625q-0.90625 0.828125 -2.34375 0.828125l-12.046875 0l0 9.875l14.453125 0z" fill-rule="nonzero"/><path fill="#000000" fill-opacity="0.0" d="m242.15814 150.91864l471.49603 0l0 77.00787l-471.49603 0z" fill-rule="evenodd"/><path fill="#93c47d" d="m326.2892 175.60301q1.65625 0.859375 1.65625 2.71875q0 1.125 -0.796875 2.1875q-0.859375 1.125 -2.1875 1.125q-0.90625 0 -1.8125 -0.484375q-2.609375 -1.234375 -5.65625 -1.234375q-3.734375 0 -6.515625 1.578125q-2.765625 1.578125 -4.265625 4.4375q-1.484375 2.84375 -1.484375 6.515625q0 6.296875 3.390625 9.5625q3.390625 3.25 8.875 3.25q3.25 0 5.65625 -1.234375q0.953125 -0.421875 1.703125 -0.421875q1.390625 0 2.34375 1.171875q0.8125 1.015625 0.8125 2.1875q0 0.84375 -0.4375 1.546875q-0.421875 0.6875 -1.21875 1.0625q-4.15625 2.078125 -8.859375 2.078125q-5.21875 0 -9.59375 -2.203125q-4.375 -2.21875 -6.984375 -6.53125q-2.609375 -4.328125 -2.609375 -10.46875q0 -5.4375 2.46875 -9.75q2.484375 -4.328125 6.859375 -6.75q4.375 -2.421875 9.859375 -2.421875q4.75 0 8.796875 2.078125zm51.52478 31.359375q0.265625 0.6875 0.265625 1.28125q0 1.375 -0.90625 2.265625q-0.90625 0.875 -2.078125 0.875q-0.96875 0 -1.75 -0.578125q-0.765625 -0.59375 -1.1875 -1.609375l-2.78125 -6.453125l-15.890625 0l-2.765625 6.515625q-0.375 1.0 -1.15625 1.5625q-0.765625 0.5625 -1.671875 0.5625q-1.390625 0 -2.109375 -0.734375q-0.71875 -0.75 -0.71875 -2.03125q0 -0.484375 0.15625 -1.015625l13.28125 -31.890625q0.4375 -1.0625 1.28125 -1.65625q0.859375 -0.59375 1.921875 -0.484375q0.953125 0 1.78125 0.5625q0.828125 0.5625 1.203125 1.578125l13.125 31.25zm-21.703125 -10.34375l10.65625 0l-5.375 -12.484375l-5.28125 12.484375zm53.43036 15.03125q-3.84375 0 -6.828125 -0.953125q-2.984375 -0.96875 -5.59375 -3.25q-1.4375 -1.28125 -1.4375 -2.828125q0 -1.234375 0.90625 -2.15625q0.90625 -0.9375 2.171875 -0.9375q1.015625 0 1.828125 0.640625q2.125 1.75 4.140625 2.5625q2.03125 0.796875 4.8125 0.796875q2.984375 0 5.140625 -1.328125q2.15625 -1.34375 2.15625 -3.3125q0 -2.40625 -2.140625 -3.765625q-2.125 -1.359375 -6.75 -2.046875q-11.6875 -1.71875 -11.6875 -10.890625q0 -3.359375 1.75 -5.828125q1.765625 -2.484375 4.796875 -3.78125q3.046875 -1.3125 6.78125 -1.3125q3.359375 0 6.3125 1.015625q2.96875 1.0 4.9375 2.65625q1.546875 1.234375 1.546875 2.828125q0 1.234375 -0.90625 2.171875q-0.90625 0.921875 -2.125 0.921875q-0.796875 0 -1.4375 -0.484375q-1.390625 -1.109375 -3.875 -2.046875q-2.46875 -0.9375 -4.453125 -0.9375q-3.359375 0 -5.203125 1.265625q-1.828125 1.25 -1.828125 3.265625q0 2.296875 1.890625 3.46875q1.890625 1.171875 5.953125 1.921875q4.578125 0.796875 7.328125 2.0625q2.75 1.25 4.125 3.40625q1.390625 2.15625 1.390625 5.734375q0 3.359375 -1.890625 5.890625q-1.890625 2.53125 -5.046875 3.890625q-3.140625 1.359375 -6.765625 1.359375zm46.768677 0q-3.84375 0 -6.828125 -0.953125q-2.984375 -0.96875 -5.59375 -3.25q-1.4375 -1.28125 -1.4375 -2.828125q0 -1.234375 0.90625 -2.15625q0.90625 -0.9375 2.171875 -0.9375q1.015625 0 1.828125 0.640625q2.125 1.75 4.140625 2.5625q2.03125 0.796875 4.8125 0.796875q2.984375 0 5.140625 -1.328125q2.15625 -1.34375 2.15625 -3.3125q0 -2.40625 -2.140625 -3.765625q-2.125 -1.359375 -6.75 -2.046875q-11.6875 -1.71875 -11.6875 -10.890625q0 -3.359375 1.75 -5.828125q1.765625 -2.484375 4.796875 -3.78125q3.046875 -1.3125 6.78125 -1.3125q3.359375 0 6.3125 1.015625q2.96875 1.0 4.9375 2.65625q1.546875 1.234375 1.546875 2.828125q0 1.234375 -0.90625 2.171875q-0.90625 0.921875 -2.125 0.921875q-0.796875 0 -1.4375 -0.484375q-1.390625 -1.109375 -3.875 -2.046875q-2.46875 -0.9375 -4.453125 -0.9375q-3.359375 0 -5.203125 1.265625q-1.828125 1.25 -1.828125 3.265625q0 2.296875 1.890625 3.46875q1.890625 1.171875 5.953125 1.921875q4.578125 0.796875 7.328125 2.0625q2.75 1.25 4.125 3.40625q1.390625 2.15625 1.390625 5.734375q0 3.359375 -1.890625 5.890625q-1.890625 2.53125 -5.046875 3.890625q-3.140625 1.359375 -6.765625 1.359375zm55.893707 -6.65625q1.375 0 2.3125 0.9375q0.9375 0.921875 0.9375 2.140625q0 1.34375 -0.9375 2.203125q-0.9375 0.84375 -2.3125 0.84375l-17.875 0q-1.390625 0 -2.328125 -0.921875q-0.921875 -0.9375 -0.921875 -2.328125l0 -30.828125q0 -1.390625 0.921875 -2.3125q0.9375 -0.9375 2.328125 -0.9375l17.875 0q1.375 0 2.3125 0.890625q0.9375 0.875 0.9375 2.25q0 1.34375 -0.90625 2.171875q-0.90625 0.8125 -2.34375 0.8125l-14.453125 0l0 9.078125l12.046875 0q1.390625 0 2.3125 0.875q0.9375 0.875 0.9375 2.265625q0 1.328125 -0.90625 2.15625q-0.90625 0.828125 -2.34375 0.828125l-12.046875 0l0 9.875l14.453125 0zm48.841736 -31.203125q1.4375 0 2.34375 0.859375q0.90625 0.84375 0.90625 2.234375q0 1.390625 -0.90625 2.21875q-0.90625 0.8125 -2.34375 0.8125l-8.375 0l0 27.953125q0 1.390625 -1.015625 2.328125q-1.015625 0.921875 -2.5 0.921875q-1.5 0 -2.46875 -0.921875q-0.953125 -0.9375 -0.953125 -2.328125l0 -27.953125l-8.359375 0q-1.453125 0 -2.359375 -0.84375q-0.90625 -0.859375 -0.90625 -2.25q0 -1.328125 0.9375 -2.171875q0.9375 -0.859375 2.328125 -0.859375l23.671875 0zm48.315186 0q1.4375 0 2.34375 0.859375q0.90625 0.84375 0.90625 2.234375q0 1.390625 -0.90625 2.21875q-0.90625 0.8125 -2.34375 0.8125l-8.375 0l0 27.953125q0 1.390625 -1.015625 2.328125q-1.015625 0.921875 -2.5 0.921875q-1.5 0 -2.46875 -0.921875q-0.953125 -0.9375 -0.953125 -2.328125l0 -27.953125l-8.359375 0q-1.453125 0 -2.359375 -0.84375q-0.90625 -0.859375 -0.90625 -2.25q0 -1.328125 0.9375 -2.171875q0.9375 -0.859375 2.328125 -0.859375l23.671875 0zm44.908936 31.203125q1.375 0 2.3125 0.9375q0.9375 0.921875 0.9375 2.140625q0 1.34375 -0.9375 2.203125q-0.9375 0.84375 -2.3125 0.84375l-17.875 0q-1.390625 0 -2.328125 -0.921875q-0.921875 -0.9375 -0.921875 -2.328125l0 -30.828125q0 -1.390625 0.921875 -2.3125q0.9375 -0.9375 2.328125 -0.9375l17.875 0q1.375 0 2.3125 0.890625q0.9375 0.875 0.9375 2.25q0 1.34375 -0.90625 2.171875q-0.90625 0.8125 -2.34375 0.8125l-14.453125 0l0 9.078125l12.046875 0q1.390625 0 2.3125 0.875q0.9375 0.875 0.9375 2.265625q0 1.328125 -0.90625 2.15625q-0.90625 0.828125 -2.34375 0.828125l-12.046875 0l0 9.875l14.453125 0z" fill-rule="nonzero"/><path fill="#000000" fill-opacity="0.0" d="m240.90814 148.91864l471.49603 0l0 77.00787l-471.49603 0z" fill-rule="evenodd"/><path fill="#6d9eeb" d="m325.0392 173.60301q1.65625 0.859375 1.65625 2.71875q0 1.125 -0.796875 2.1875q-0.859375 1.125 -2.1875 1.125q-0.90625 0 -1.8125 -0.484375q-2.609375 -1.234375 -5.65625 -1.234375q-3.734375 0 -6.515625 1.578125q-2.765625 1.578125 -4.265625 4.4375q-1.484375 2.84375 -1.484375 6.515625q0 6.296875 3.390625 9.5625q3.390625 3.25 8.875 3.25q3.25 0 5.65625 -1.234375q0.953125 -0.421875 1.703125 -0.421875q1.390625 0 2.34375 1.171875q0.8125 1.015625 0.8125 2.1875q0 0.84375 -0.4375 1.546875q-0.421875 0.6875 -1.21875 1.0625q-4.15625 2.078125 -8.859375 2.078125q-5.21875 0 -9.59375 -2.203125q-4.375 -2.21875 -6.984375 -6.53125q-2.609375 -4.328125 -2.609375 -10.46875q0 -5.4375 2.46875 -9.75q2.484375 -4.328125 6.859375 -6.75q4.375 -2.421875 9.859375 -2.421875q4.75 0 8.796875 2.078125zm51.52478 31.359375q0.265625 0.6875 0.265625 1.28125q0 1.375 -0.90625 2.265625q-0.90625 0.875 -2.078125 0.875q-0.96875 0 -1.75 -0.578125q-0.765625 -0.59375 -1.1875 -1.609375l-2.78125 -6.453125l-15.890625 0l-2.765625 6.515625q-0.375 1.0 -1.15625 1.5625q-0.765625 0.5625 -1.671875 0.5625q-1.390625 0 -2.109375 -0.734375q-0.71875 -0.75 -0.71875 -2.03125q0 -0.484375 0.15625 -1.015625l13.28125 -31.890625q0.4375 -1.0625 1.28125 -1.65625q0.859375 -0.59375 1.921875 -0.484375q0.953125 0 1.78125 0.5625q0.828125 0.5625 1.203125 1.578125l13.125 31.25zm-21.703125 -10.34375l10.65625 0l-5.375 -12.484375l-5.28125 12.484375zm53.43036 15.03125q-3.84375 0 -6.828125 -0.953125q-2.984375 -0.96875 -5.59375 -3.25q-1.4375 -1.28125 -1.4375 -2.828125q0 -1.234375 0.90625 -2.15625q0.90625 -0.9375 2.171875 -0.9375q1.015625 0 1.828125 0.640625q2.125 1.75 4.140625 2.5625q2.03125 0.796875 4.8125 0.796875q2.984375 0 5.140625 -1.328125q2.15625 -1.34375 2.15625 -3.3125q0 -2.40625 -2.140625 -3.765625q-2.125 -1.359375 -6.75 -2.046875q-11.6875 -1.71875 -11.6875 -10.890625q0 -3.359375 1.75 -5.828125q1.765625 -2.484375 4.796875 -3.78125q3.046875 -1.3125 6.78125 -1.3125q3.359375 0 6.3125 1.015625q2.96875 1.0 4.9375 2.65625q1.546875 1.234375 1.546875 2.828125q0 1.234375 -0.90625 2.171875q-0.90625 0.921875 -2.125 0.921875q-0.796875 0 -1.4375 -0.484375q-1.390625 -1.109375 -3.875 -2.046875q-2.46875 -0.9375 -4.453125 -0.9375q-3.359375 0 -5.203125 1.265625q-1.828125 1.25 -1.828125 3.265625q0 2.296875 1.890625 3.46875q1.890625 1.171875 5.953125 1.921875q4.578125 0.796875 7.328125 2.0625q2.75 1.25 4.125 3.40625q1.390625 2.15625 1.390625 5.734375q0 3.359375 -1.890625 5.890625q-1.890625 2.53125 -5.046875 3.890625q-3.140625 1.359375 -6.765625 1.359375zm46.768677 0q-3.84375 0 -6.828125 -0.953125q-2.984375 -0.96875 -5.59375 -3.25q-1.4375 -1.28125 -1.4375 -2.828125q0 -1.234375 0.90625 -2.15625q0.90625 -0.9375 2.171875 -0.9375q1.015625 0 1.828125 0.640625q2.125 1.75 4.140625 2.5625q2.03125 0.796875 4.8125 0.796875q2.984375 0 5.140625 -1.328125q2.15625 -1.34375 2.15625 -3.3125q0 -2.40625 -2.140625 -3.765625q-2.125 -1.359375 -6.75 -2.046875q-11.6875 -1.71875 -11.6875 -10.890625q0 -3.359375 1.75 -5.828125q1.765625 -2.484375 4.796875 -3.78125q3.046875 -1.3125 6.78125 -1.3125q3.359375 0 6.3125 1.015625q2.96875 1.0 4.9375 2.65625q1.546875 1.234375 1.546875 2.828125q0 1.234375 -0.90625 2.171875q-0.90625 0.921875 -2.125 0.921875q-0.796875 0 -1.4375 -0.484375q-1.390625 -1.109375 -3.875 -2.046875q-2.46875 -0.9375 -4.453125 -0.9375q-3.359375 0 -5.203125 1.265625q-1.828125 1.25 -1.828125 3.265625q0 2.296875 1.890625 3.46875q1.890625 1.171875 5.953125 1.921875q4.578125 0.796875 7.328125 2.0625q2.75 1.25 4.125 3.40625q1.390625 2.15625 1.390625 5.734375q0 3.359375 -1.890625 5.890625q-1.890625 2.53125 -5.046875 3.890625q-3.140625 1.359375 -6.765625 1.359375zm55.893707 -6.65625q1.375 0 2.3125 0.9375q0.9375 0.921875 0.9375 2.140625q0 1.34375 -0.9375 2.203125q-0.9375 0.84375 -2.3125 0.84375l-17.875 0q-1.390625 0 -2.328125 -0.921875q-0.921875 -0.9375 -0.921875 -2.328125l0 -30.828125q0 -1.390625 0.921875 -2.3125q0.9375 -0.9375 2.328125 -0.9375l17.875 0q1.375 0 2.3125 0.890625q0.9375 0.875 0.9375 2.25q0 1.34375 -0.90625 2.171875q-0.90625 0.8125 -2.34375 0.8125l-14.453125 0l0 9.078125l12.046875 0q1.390625 0 2.3125 0.875q0.9375 0.875 0.9375 2.265625q0 1.328125 -0.90625 2.15625q-0.90625 0.828125 -2.34375 0.828125l-12.046875 0l0 9.875l14.453125 0zm48.841736 -31.203125q1.4375 0 2.34375 0.859375q0.90625 0.84375 0.90625 2.234375q0 1.390625 -0.90625 2.21875q-0.90625 0.8125 -2.34375 0.8125l-8.375 0l0 27.953125q0 1.390625 -1.015625 2.328125q-1.015625 0.921875 -2.5 0.921875q-1.5 0 -2.46875 -0.921875q-0.953125 -0.9375 -0.953125 -2.328125l0 -27.953125l-8.359375 0q-1.453125 0 -2.359375 -0.84375q-0.90625 -0.859375 -0.90625 -2.25q0 -1.328125 0.9375 -2.171875q0.9375 -0.859375 2.328125 -0.859375l23.671875 0zm48.315186 0q1.4375 0 2.34375 0.859375q0.90625 0.84375 0.90625 2.234375q0 1.390625 -0.90625 2.21875q-0.90625 0.8125 -2.34375 0.8125l-8.375 0l0 27.953125q0 1.390625 -1.015625 2.328125q-1.015625 0.921875 -2.5 0.921875q-1.5 0 -2.46875 -0.921875q-0.953125 -0.9375 -0.953125 -2.328125l0 -27.953125l-8.359375 0q-1.453125 0 -2.359375 -0.84375q-0.90625 -0.859375 -0.90625 -2.25q0 -1.328125 0.9375 -2.171875q0.9375 -0.859375 2.328125 -0.859375l23.671875 0zm44.908936 31.203125q1.375 0 2.3125 0.9375q0.9375 0.921875 0.9375 2.140625q0 1.34375 -0.9375 2.203125q-0.9375 0.84375 -2.3125 0.84375l-17.875 0q-1.390625 0 -2.328125 -0.921875q-0.921875 -0.9375 -0.921875 -2.328125l0 -30.828125q0 -1.390625 0.921875 -2.3125q0.9375 -0.9375 2.328125 -0.9375l17.875 0q1.375 0 2.3125 0.890625q0.9375 0.875 0.9375 2.25q0 1.34375 -0.90625 2.171875q-0.90625 0.8125 -2.34375 0.8125l-14.453125 0l0 9.078125l12.046875 0q1.390625 0 2.3125 0.875q0.9375 0.875 0.9375 2.265625q0 1.328125 -0.90625 2.15625q-0.90625 0.828125 -2.34375 0.828125l-12.046875 0l0 9.875l14.453125 0z" fill-rule="nonzero"/><path fill="#c27ba0" d="m347.1942 252.70364l0 0c0 -6.314438 5.118866 -11.433304 11.433319 -11.433304l243.24362 0c3.0322876 0 5.9404297 1.2045746 8.084595 3.3487396c2.144165 2.1441498 3.3486938 5.0522614 3.3486938 8.084564l0 45.73181c0 6.314453 -5.1188354 11.433319 -11.433289 11.433319l-243.24362 0c-6.314453 0 -11.433319 -5.118866 -11.433319 -11.433319z" fill-rule="evenodd"/><path fill="#93c47d" d="m345.1942 250.95364l0 0c0 -6.314438 5.118866 -11.433304 11.433319 -11.433304l243.24362 0c3.0322876 0 5.9404297 1.2045746 8.084595 3.3487396c2.144165 2.1441498 3.3486938 5.0522614 3.3486938 8.084564l0 45.73181c0 6.314453 -5.1188354 11.433319 -11.433289 11.433319l-243.24362 0c-6.314453 0 -11.433319 -5.118866 -11.433319 -11.433319z" fill-rule="evenodd"/><path fill="#6d9eeb" d="m343.4442 248.82864l0 0c0 -6.314438 5.118866 -11.433304 11.433319 -11.433304l243.24362 0c3.0322876 0 5.9404297 1.2045746 8.084595 3.3487396c2.144165 2.1441498 3.3486938 5.0522614 3.3486938 8.084564l0 45.73181c0 6.314453 -5.1188354 11.433319 -11.433289 11.433319l-243.24362 0c-6.314453 0 -11.433319 -5.118866 -11.433319 -11.433319z" fill-rule="evenodd"/><path fill="#d55b43" d="m341.1942 246.70364l0 0c0 -6.314438 5.118866 -11.433304 11.433319 -11.433304l243.24362 0c3.0322876 0 5.9404297 1.2045746 8.084595 3.3487396c2.144165 2.1441498 3.3486938 5.0522614 3.3486938 8.084564l0 45.73181c0 6.314453 -5.1188354 11.433319 -11.433289 11.433319l-243.24362 0c-6.314453 0 -11.433319 -5.118866 -11.433319 -11.433319z" fill-rule="evenodd"/><path fill="#000000" fill-opacity="0.0" d="m238.90814 146.91864l471.49603 0l0 77.00787l-471.49603 0z" fill-rule="evenodd"/><path fill="#d55b43" d="m323.0392 171.60301q1.65625 0.859375 1.65625 2.71875q0 1.125 -0.796875 2.1875q-0.859375 1.125 -2.1875 1.125q-0.90625 0 -1.8125 -0.484375q-2.609375 -1.234375 -5.65625 -1.234375q-3.734375 0 -6.515625 1.578125q-2.765625 1.578125 -4.265625 4.4375q-1.484375 2.84375 -1.484375 6.515625q0 6.296875 3.390625 9.5625q3.390625 3.25 8.875 3.25q3.25 0 5.65625 -1.234375q0.953125 -0.421875 1.703125 -0.421875q1.390625 0 2.34375 1.171875q0.8125 1.015625 0.8125 2.1875q0 0.84375 -0.4375 1.546875q-0.421875 0.6875 -1.21875 1.0625q-4.15625 2.078125 -8.859375 2.078125q-5.21875 0 -9.59375 -2.203125q-4.375 -2.21875 -6.984375 -6.53125q-2.609375 -4.328125 -2.609375 -10.46875q0 -5.4375 2.46875 -9.75q2.484375 -4.328125 6.859375 -6.75q4.375 -2.421875 9.859375 -2.421875q4.75 0 8.796875 2.078125zm51.52478 31.359375q0.265625 0.6875 0.265625 1.28125q0 1.375 -0.90625 2.265625q-0.90625 0.875 -2.078125 0.875q-0.96875 0 -1.75 -0.578125q-0.765625 -0.59375 -1.1875 -1.609375l-2.78125 -6.453125l-15.890625 0l-2.765625 6.515625q-0.375 1.0 -1.15625 1.5625q-0.765625 0.5625 -1.671875 0.5625q-1.390625 0 -2.109375 -0.734375q-0.71875 -0.75 -0.71875 -2.03125q0 -0.484375 0.15625 -1.015625l13.28125 -31.890625q0.4375 -1.0625 1.28125 -1.65625q0.859375 -0.59375 1.921875 -0.484375q0.953125 0 1.78125 0.5625q0.828125 0.5625 1.203125 1.578125l13.125 31.25zm-21.703125 -10.34375l10.65625 0l-5.375 -12.484375l-5.28125 12.484375zm53.43036 15.03125q-3.84375 0 -6.828125 -0.953125q-2.984375 -0.96875 -5.59375 -3.25q-1.4375 -1.28125 -1.4375 -2.828125q0 -1.234375 0.90625 -2.15625q0.90625 -0.9375 2.171875 -0.9375q1.015625 0 1.828125 0.640625q2.125 1.75 4.140625 2.5625q2.03125 0.796875 4.8125 0.796875q2.984375 0 5.140625 -1.328125q2.15625 -1.34375 2.15625 -3.3125q0 -2.40625 -2.140625 -3.765625q-2.125 -1.359375 -6.75 -2.046875q-11.6875 -1.71875 -11.6875 -10.890625q0 -3.359375 1.75 -5.828125q1.765625 -2.484375 4.796875 -3.78125q3.046875 -1.3125 6.78125 -1.3125q3.359375 0 6.3125 1.015625q2.96875 1.0 4.9375 2.65625q1.546875 1.234375 1.546875 2.828125q0 1.234375 -0.90625 2.171875q-0.90625 0.921875 -2.125 0.921875q-0.796875 0 -1.4375 -0.484375q-1.390625 -1.109375 -3.875 -2.046875q-2.46875 -0.9375 -4.453125 -0.9375q-3.359375 0 -5.203125 1.265625q-1.828125 1.25 -1.828125 3.265625q0 2.296875 1.890625 3.46875q1.890625 1.171875 5.953125 1.921875q4.578125 0.796875 7.328125 2.0625q2.75 1.25 4.125 3.40625q1.390625 2.15625 1.390625 5.734375q0 3.359375 -1.890625 5.890625q-1.890625 2.53125 -5.046875 3.890625q-3.140625 1.359375 -6.765625 1.359375zm46.768677 0q-3.84375 0 -6.828125 -0.953125q-2.984375 -0.96875 -5.59375 -3.25q-1.4375 -1.28125 -1.4375 -2.828125q0 -1.234375 0.90625 -2.15625q0.90625 -0.9375 2.171875 -0.9375q1.015625 0 1.828125 0.640625q2.125 1.75 4.140625 2.5625q2.03125 0.796875 4.8125 0.796875q2.984375 0 5.140625 -1.328125q2.15625 -1.34375 2.15625 -3.3125q0 -2.40625 -2.140625 -3.765625q-2.125 -1.359375 -6.75 -2.046875q-11.6875 -1.71875 -11.6875 -10.890625q0 -3.359375 1.75 -5.828125q1.765625 -2.484375 4.796875 -3.78125q3.046875 -1.3125 6.78125 -1.3125q3.359375 0 6.3125 1.015625q2.96875 1.0 4.9375 2.65625q1.546875 1.234375 1.546875 2.828125q0 1.234375 -0.90625 2.171875q-0.90625 0.921875 -2.125 0.921875q-0.796875 0 -1.4375 -0.484375q-1.390625 -1.109375 -3.875 -2.046875q-2.46875 -0.9375 -4.453125 -0.9375q-3.359375 0 -5.203125 1.265625q-1.828125 1.25 -1.828125 3.265625q0 2.296875 1.890625 3.46875q1.890625 1.171875 5.953125 1.921875q4.578125 0.796875 7.328125 2.0625q2.75 1.25 4.125 3.40625q1.390625 2.15625 1.390625 5.734375q0 3.359375 -1.890625 5.890625q-1.890625 2.53125 -5.046875 3.890625q-3.140625 1.359375 -6.765625 1.359375zm55.893707 -6.65625q1.375 0 2.3125 0.9375q0.9375 0.921875 0.9375 2.140625q0 1.34375 -0.9375 2.203125q-0.9375 0.84375 -2.3125 0.84375l-17.875 0q-1.390625 0 -2.328125 -0.921875q-0.921875 -0.9375 -0.921875 -2.328125l0 -30.828125q0 -1.390625 0.921875 -2.3125q0.9375 -0.9375 2.328125 -0.9375l17.875 0q1.375 0 2.3125 0.890625q0.9375 0.875 0.9375 2.25q0 1.34375 -0.90625 2.171875q-0.90625 0.8125 -2.34375 0.8125l-14.453125 0l0 9.078125l12.046875 0q1.390625 0 2.3125 0.875q0.9375 0.875 0.9375 2.265625q0 1.328125 -0.90625 2.15625q-0.90625 0.828125 -2.34375 0.828125l-12.046875 0l0 9.875l14.453125 0zm48.841736 -31.203125q1.4375 0 2.34375 0.859375q0.90625 0.84375 0.90625 2.234375q0 1.390625 -0.90625 2.21875q-0.90625 0.8125 -2.34375 0.8125l-8.375 0l0 27.953125q0 1.390625 -1.015625 2.328125q-1.015625 0.921875 -2.5 0.921875q-1.5 0 -2.46875 -0.921875q-0.953125 -0.9375 -0.953125 -2.328125l0 -27.953125l-8.359375 0q-1.453125 0 -2.359375 -0.84375q-0.90625 -0.859375 -0.90625 -2.25q0 -1.328125 0.9375 -2.171875q0.9375 -0.859375 2.328125 -0.859375l23.671875 0zm48.315186 0q1.4375 0 2.34375 0.859375q0.90625 0.84375 0.90625 2.234375q0 1.390625 -0.90625 2.21875q-0.90625 0.8125 -2.34375 0.8125l-8.375 0l0 27.953125q0 1.390625 -1.015625 2.328125q-1.015625 0.921875 -2.5 0.921875q-1.5 0 -2.46875 -0.921875q-0.953125 -0.9375 -0.953125 -2.328125l0 -27.953125l-8.359375 0q-1.453125 0 -2.359375 -0.84375q-0.90625 -0.859375 -0.90625 -2.25q0 -1.328125 0.9375 -2.171875q0.9375 -0.859375 2.328125 -0.859375l23.671875 0zm44.908936 31.203125q1.375 0 2.3125 0.9375q0.9375 0.921875 0.9375 2.140625q0 1.34375 -0.9375 2.203125q-0.9375 0.84375 -2.3125 0.84375l-17.875 0q-1.390625 0 -2.328125 -0.921875q-0.921875 -0.9375 -0.921875 -2.328125l0 -30.828125q0 -1.390625 0.921875 -2.3125q0.9375 -0.9375 2.328125 -0.9375l17.875 0q1.375 0 2.3125 0.890625q0.9375 0.875 0.9375 2.25q0 1.34375 -0.90625 2.171875q-0.90625 0.8125 -2.34375 0.8125l-14.453125 0l0 9.078125l12.046875 0q1.390625 0 2.3125 0.875q0.9375 0.875 0.9375 2.265625q0 1.328125 -0.90625 2.15625q-0.90625 0.828125 -2.34375 0.828125l-12.046875 0l0 9.875l14.453125 0z" fill-rule="nonzero"/><path fill="#ffffff" d="m551.65344 276.1156l6.930786 -8.714752l-2.4735107 -10.8671875l11.116089 3.0517578E-5l6.930664 -8.714798l6.930664 8.714798l11.11615 -3.0517578E-5l-2.4735718 10.8671875l6.930847 8.714752l-10.01532 4.836334l-2.4736328 10.8671875l-10.015137 -4.8363953l-10.015137 4.8363953l-2.4735718 -10.8671875z" fill-rule="evenodd"/><path fill="#ffffff" d="m351.6534 276.1156l6.9308167 -8.714752l-2.4735107 -10.8671875l11.116089 3.0517578E-5l6.930664 -8.714798l6.9306946 8.714798l11.116089 -3.0517578E-5l-2.4735107 10.8671875l6.930786 8.714752l-10.01532 4.836334l-2.4736023 10.8671875l-10.015137 -4.8363953l-10.015137 4.8363953l-2.4735718 -10.8671875z" fill-rule="evenodd"/></g></svg>